<svg xmlns="http://www.w3.org/2000/svg" width="24" height="24" viewBox="0 0 24 24">
  <path d="M20.66 6.98c-.894-1.533-2.107-2.747-3.641-3.64C15.486 2.447 13.813 2 12 2s-3.486.447-5.02 1.34c-1.533.893-2.747 2.107-3.64 3.64S2 10.187 2 12s.446 3.487 1.34 5.02c.894 1.534 2.107 2.747 3.641 3.64C8.514 21.553 10.187 22 12 22s3.486-.447 5.02-1.34c1.533-.893 2.747-2.106 3.641-3.64C21.554 15.487 22 13.813 22 12s-.446-3.487-1.34-5.02zM12 3.66c2 0 3.772.64 5.32 1.919-.92 1.174-2.286 2.14-4.1 2.9-1.002-1.813-2.088-3.327-3.261-4.54.682-.186 1.36-.279 2.041-.279zM5.51 6.8c.754-.947 1.656-1.686 2.711-2.22 1.212 1.201 2.325 2.7 3.34 4.5-2 .6-4.114.9-6.341.9-.573 0-1.006-.013-1.3-.04.307-1.147.837-2.193 1.59-3.14zM3.66 12c0-.054.003-.12.01-.2.007-.08.01-.146.01-.2.254.014.641.02 1.161.02 2.666 0 5.146-.367 7.439-1.1.187.373.381.793.58 1.26-1.32.293-2.674 1.006-4.061 2.14S6.4 16.247 5.76 17.5c-1.4-1.587-2.1-3.42-2.1-5.5zM12 20.34c-1.894 0-3.594-.587-5.101-1.759.601-1.187 1.524-2.322 2.771-3.401 1.246-1.08 2.483-1.753 3.71-2.02.772 2.133 1.293 4.339 1.56 6.62-.974.373-1.954.56-2.94.56zm7.08-3.96c-.666 1.066-1.526 1.94-2.58 2.621-.24-2.08-.7-4.107-1.379-6.081.932-.066 1.765-.1 2.5-.1.799 0 1.686.034 2.659.1-.134 1.24-.534 2.393-1.2 3.46zm-1.24-5c-1.16 0-2.233.047-3.22.14-.254-.653-.48-1.193-.68-1.62 2.066-.906 3.532-2.006 4.399-3.3 1.2 1.414 1.854 3.027 1.96 4.84-.812-.04-1.632-.06-2.459-.06z"/>
</svg>
