<svg xmlns="http://www.w3.org/2000/svg" width="24" height="24" viewBox="0 0 24 24">
  <path d="M19.668 3H4.328C3.595 3 3 3.581 3 4.298v15.403C3 20.417 3.595 21 4.328 21h15.34c.733 0 1.331-.582 1.331-1.299V4.298c0-.717-.598-1.298-1.331-1.298zM8.339 18.337H5.667v-8.59h2.672v8.59zM7.003 8.574c-.856 0-1.548-.694-1.548-1.548s.691-1.548 1.548-1.548c.854 0 1.548.693 1.548 1.548s-.694 1.548-1.548 1.548zm11.335 9.763h-2.669V14.16c0-.996-.018-2.277-1.388-2.277-1.39 0-1.601 1.086-1.601 2.207v4.248h-2.667v-8.59h2.56v1.174h.037c.355-.675 1.227-1.387 2.524-1.387 2.704 0 3.203 1.778 3.203 4.092v4.71z"/>
</svg>
