<svg xmlns="http://www.w3.org/2000/svg" width="24" height="24" viewBox="0 0 24 24">
  <path fill="#12100E" d="M3 3v18h18V3H3zm14.954 4.265l-.966.925c-.083.063-.124.167-.106.271v6.801c-.018.103.023.208.106.271l.942.926v.204h-4.741v-.204l.977-.948c.097-.096.097-.125.097-.271V9.742l-2.716 6.896h-.368L8.018 9.742v4.622c-.025.194.039.39.176.531l1.271 1.541v.203H5.861v-.203l1.271-1.541c.136-.141.196-.338.164-.531V9.02c.015-.148-.041-.295-.152-.395l-1.13-1.36v-.203H9.52l2.71 5.943 2.382-5.943h3.343v.203z"/>
</svg>
