<svg xmlns="http://www.w3.org/2000/svg" width="24" height="24" viewBox="0 0 24 24">
  <g fill="#12100E">
    <circle cx="9.67" cy="13" r="1.001"/>
    <path d="M14.09 15.39c-.607.436-1.344.651-2.09.61-.744.034-1.479-.189-2.081-.63-.099-.081-.242-.081-.342 0-.115.095-.132.265-.037.38.71.535 1.582.808 2.471.77.887.038 1.76-.234 2.47-.77v.04c.109-.107.111-.285.006-.396-.11-.11-.287-.112-.397-.004zm.209-3.35c-.552 0-.999.448-.999 1.001 0 .552.447.999.999.999l-.008.039c.016.002.033 0 .051 0 .551-.021.979-.487.958-1.038 0-.553-.447-1.001-1.001-1.001z"/>
    <path d="M12 2C6.479 2 2 6.477 2 12c0 5.521 4.479 10 10 10s10-4.479 10-10c0-5.523-4.479-10-10-10zm5.86 11.33c.011.146.011.293 0 .439 0 2.241-2.61 4.062-5.83 4.062-3.221 0-5.83-1.82-5.83-4.062-.012-.146-.012-.293 0-.439-.145-.066-.275-.155-.392-.264-.587-.553-.614-1.477-.063-2.063.552-.588 1.477-.616 2.063-.063 1.152-.781 2.509-1.209 3.899-1.23l.743-3.47v-.004c.037-.167.202-.272.37-.236l2.449.49c.16-.275.441-.458.758-.492.55-.059 1.042.338 1.102.888.059.549-.338 1.042-.889 1.101-.548.059-1.041-.338-1.102-.887L13 6.65l-.649 3.12c1.375.029 2.712.457 3.85 1.23.259-.248.599-.393.957-.406.807-.029 1.483.6 1.512 1.406.009.562-.307 1.08-.81 1.33z"/>
  </g>
</svg>
