<svg xmlns="http://www.w3.org/2000/svg" width="24" height="24" viewBox="0 0 24 24">
  <path d="M11.857 17.417c-2.947 0-4.294-1.524-4.294-2.641 0-.266.108-.521.298-.705.19-.183.447-.279.71-.264 1.261 0 .931 1.92 3.286 1.92 1.203 0 1.91-.736 1.91-1.425 0-.415-.234-.889-1.028-1.079l-2.629-.673c-2.111-.545-2.479-1.737-2.479-2.842 0-2.293 2.068-3.124 4.036-3.124 1.814 0 3.97 1.016 3.97 2.391 0 .592-.488.91-1.055.91-1.078 0-.897-1.536-3.063-1.536-1.077 0-1.645.513-1.645 1.23s.839.96 1.574 1.123l1.941.445c2.126.486 2.691 1.751 2.691 2.963 0 1.865-1.423 3.305-4.226 3.305m8.139-3.942c.086-.49.128-.986.128-1.482.01-2.495-1.071-4.866-2.952-6.474-1.879-1.609-4.365-2.288-6.788-1.856-.743-.435-1.587-.663-2.446-.661-1.763.01-3.387.97-4.27 2.519-.881 1.549-.887 3.457-.015 5.011-.487 2.714.366 5.497 2.282 7.453 1.917 1.955 4.655 2.835 7.333 2.355.743.435 1.586.663 2.443.662 1.764-.011 3.386-.97 4.269-2.518.882-1.548.889-3.455.016-5.009"/>
</svg>
