<svg xmlns="http://www.w3.org/2000/svg" width="24" height="24" viewBox="0 0 24 24">
  <path d="M20.935 12.646c-.28-.842-1.181-1.3-2.022-1.034l-1.632.532c-.355-1.099-.735-2.268-1.092-3.365l.006-.002-.004-.008 1.613-.523c.842-.281 1.3-1.182 1.035-2.023-.281-.842-1.184-1.3-2.025-1.034l-1.621.527-.519-1.604c-.281-.842-1.181-1.3-2.024-1.034-.842.28-1.299 1.181-1.033 2.024l.522 1.609-3.368 1.092-.524-1.611c-.279-.841-1.182-1.3-2.022-1.034-.843.28-1.301 1.182-1.034 2.023l.524 1.616-1.662.541c-.782.281-1.225 1.138-.988 1.95.25.856 1.152 1.373 1.979 1.092.006 0 .658-.209 1.665-.536l1.099 3.386h-.002v.002l-1.67.545c-.782.28-1.225 1.137-.987 1.949.25.857 1.15 1.374 1.979 1.093.007 0 .659-.211 1.665-.538l.003.005.008-.002.539 1.657c.281.783 1.138 1.226 1.949.989.857-.25 1.373-1.151 1.094-1.979 0-.006-.209-.654-.533-1.654l-.003-.009c1.104-.358 2.276-.739 3.376-1.098l.543 1.668c.28.782 1.138 1.225 1.949.989.856-.251 1.374-1.152 1.092-1.979 0-.007-.209-.659-.535-1.663l.019-.006-.003-.007 1.609-.522c.843-.281 1.301-1.182 1.035-2.024zM10.86 14.238l-1.097-3.377.005-.001v-.006c1.098-.356 2.268-.735 3.363-1.092l1.098 3.377-3.369 1.099z"/>
</svg>
