<?xml version="1.0" standalone="no"?>
<!DOCTYPE svg PUBLIC "-//W3C//DTD SVG 20010904//EN"
 "http://www.w3.org/TR/2001/REC-SVG-20010904/DTD/svg10.dtd">
<svg version="1.0" xmlns="http://www.w3.org/2000/svg"
 width="700.000000pt" height="700.000000pt" viewBox="0 0 700.000000 700.000000"
 preserveAspectRatio="xMidYMid meet">
<metadata>
Created by potrace 1.11, written by Peter Selinger 2001-2013
</metadata>
<g transform="translate(0.000000,700.000000) scale(0.100000,-0.100000)"
fill="#000000" stroke="none">
<path d="M3488 6685 c-1 -1 -34 -5 -73 -9 -269 -21 -512 -159 -682 -386 -41
-55 -123 -207 -123 -229 0 -14 76 -12 -740 -15 -632 -3 -711 -5 -760 -20 -249
-77 -423 -269 -464 -510 -9 -54 -11 -621 -11 -2346 1 -1251 5 -2295 9 -2320
33 -194 159 -365 337 -460 71 -37 135 -57 214 -66 33 -4 1084 -7 2335 -7 2079
0 2281 2 2340 17 246 62 431 254 479 496 16 78 17 265 16 2375 -2 2153 -3
2294 -19 2355 -36 131 -103 240 -203 329 -56 50 -190 123 -248 135 -16 4 -41
9 -55 13 -14 3 -340 7 -725 9 -799 3 -725 1 -725 14 0 20 -50 118 -98 190 -67
103 -120 160 -216 233 -152 117 -312 181 -483 193 -43 3 -83 7 -90 9 -6 2 -13
2 -15 0z m91 -650 c84 -19 167 -89 208 -175 21 -44 27 -70 27 -130 1 -341
-459 -441 -603 -131 -34 75 -35 182 -2 256 63 142 215 216 370 180z m12 -1269
c209 -14 431 -118 588 -277 368 -372 366 -977 -6 -1345 -179 -178 -407 -275
-653 -277 -137 -1 -209 9 -305 40 -437 142 -710 557 -663 1010 45 448 408 811
848 849 41 4 77 8 78 10 2 1 9 1 15 -1 7 -2 51 -6 98 -9z m124 -2390 c22 -3
60 -8 85 -11 110 -13 296 -48 425 -81 129 -32 352 -101 400 -123 11 -6 57 -26
103 -45 300 -126 534 -311 626 -493 49 -97 55 -142 56 -416 l1 -253 -1911 0
-1910 0 0 242 c0 133 4 266 10 295 5 30 29 92 52 138 80 160 264 315 522 440
155 75 191 91 208 91 8 0 18 4 23 9 12 10 302 103 361 116 11 2 60 12 109 23
50 11 106 23 125 26 19 3 45 8 57 10 23 5 92 15 138 21 17 2 71 7 120 11 50 4
91 8 93 9 5 4 266 -4 307 -9z"/>
</g>
</svg>
